<svg width="20" height="20" viewBox="0 0 20 20" fill="none" xmlns="http://www.w3.org/2000/svg">
<path d="M15.7533 4.1375L5.41165 7.0925L10.4783 9.62583L12.3575 14.3233L15.7533 4.1375ZM18.0833 2.41583L12.86 18.0875C12.8331 18.1686 12.7819 18.2395 12.7134 18.2905C12.6449 18.3416 12.5623 18.3703 12.4769 18.3729C12.3915 18.3754 12.3073 18.3517 12.2359 18.3048C12.1645 18.2579 12.1092 18.1902 12.0775 18.1108L9.16665 10.8333L1.79165 7.14583C1.71655 7.10831 1.65454 7.04897 1.61374 6.9756C1.57294 6.90223 1.55525 6.81825 1.563 6.73465C1.57075 6.65106 1.60356 6.57176 1.65715 6.50713C1.71074 6.44251 1.7826 6.39558 1.86332 6.3725L17.5741 1.88333C17.6471 1.86254 17.7244 1.86207 17.7976 1.88199C17.8709 1.9019 17.9373 1.94144 17.9897 1.99633C18.0421 2.05123 18.0785 2.11939 18.095 2.19347C18.1115 2.26754 18.1075 2.34472 18.0833 2.41667L18.0833 2.41583Z" fill="#444444"/>
</svg>
